<mxfile host="app.diagrams.net" modified="2021-11-20T11:27:31.222Z" agent="5.0 (Windows NT 10.0; Win64; x64) AppleWebKit/537.36 (KHTML, like Gecko) Chrome/95.0.4638.69 Safari/537.36" etag="RG_owu-hHkb9OQA_TKfx" version="15.8.2" type="github">
  <diagram id="C5RBs43oDa-KdzZeNtuy" name="Page-1">
    <mxGraphModel dx="1432" dy="660" grid="1" gridSize="10" guides="1" tooltips="1" connect="1" arrows="1" fold="1" page="1" pageScale="1" pageWidth="827" pageHeight="1169" math="0" shadow="0">
      <root>
        <mxCell id="WIyWlLk6GJQsqaUBKTNV-0" />
        <mxCell id="WIyWlLk6GJQsqaUBKTNV-1" parent="WIyWlLk6GJQsqaUBKTNV-0" />
        <mxCell id="R8ws0Zac1b6Tz0N1zMyR-2" value="" style="edgeStyle=orthogonalEdgeStyle;rounded=0;orthogonalLoop=1;jettySize=auto;html=1;" parent="WIyWlLk6GJQsqaUBKTNV-1" source="WIyWlLk6GJQsqaUBKTNV-3" edge="1">
          <mxGeometry relative="1" as="geometry">
            <mxPoint x="385.5" y="220" as="targetPoint" />
          </mxGeometry>
        </mxCell>
        <mxCell id="WIyWlLk6GJQsqaUBKTNV-3" value="Start" style="rounded=1;whiteSpace=wrap;html=1;fontSize=12;glass=0;strokeWidth=1;shadow=0;" parent="WIyWlLk6GJQsqaUBKTNV-1" vertex="1">
          <mxGeometry x="325.5" y="120" width="120" height="30" as="geometry" />
        </mxCell>
        <mxCell id="WIyWlLk6GJQsqaUBKTNV-6" value="Validate" style="rhombus;whiteSpace=wrap;html=1;shadow=0;fontFamily=Helvetica;fontSize=12;align=center;strokeWidth=1;spacing=6;spacingTop=-4;" parent="WIyWlLk6GJQsqaUBKTNV-1" vertex="1">
          <mxGeometry x="335.5" y="280" width="100" height="80" as="geometry" />
        </mxCell>
        <mxCell id="5fxGkOpCqhh_6MaEQhJv-6" value="" style="edgeStyle=orthogonalEdgeStyle;rounded=0;orthogonalLoop=1;jettySize=auto;html=1;" edge="1" parent="WIyWlLk6GJQsqaUBKTNV-1" source="WIyWlLk6GJQsqaUBKTNV-10" target="5fxGkOpCqhh_6MaEQhJv-3">
          <mxGeometry relative="1" as="geometry" />
        </mxCell>
        <mxCell id="WIyWlLk6GJQsqaUBKTNV-10" value="Show game boards" style="rhombus;whiteSpace=wrap;html=1;shadow=0;fontFamily=Helvetica;fontSize=12;align=center;strokeWidth=1;spacing=6;spacingTop=-4;" parent="WIyWlLk6GJQsqaUBKTNV-1" vertex="1">
          <mxGeometry x="335.5" y="460" width="100" height="80" as="geometry" />
        </mxCell>
        <mxCell id="R8ws0Zac1b6Tz0N1zMyR-9" value="" style="edgeStyle=orthogonalEdgeStyle;rounded=0;orthogonalLoop=1;jettySize=auto;html=1;" parent="WIyWlLk6GJQsqaUBKTNV-1" source="R8ws0Zac1b6Tz0N1zMyR-5" edge="1">
          <mxGeometry relative="1" as="geometry">
            <mxPoint x="385.5" y="780" as="targetPoint" />
          </mxGeometry>
        </mxCell>
        <mxCell id="5fxGkOpCqhh_6MaEQhJv-24" value="" style="edgeStyle=orthogonalEdgeStyle;rounded=0;orthogonalLoop=1;jettySize=auto;html=1;" edge="1" parent="WIyWlLk6GJQsqaUBKTNV-1" source="R8ws0Zac1b6Tz0N1zMyR-5" target="5fxGkOpCqhh_6MaEQhJv-23">
          <mxGeometry relative="1" as="geometry" />
        </mxCell>
        <mxCell id="R8ws0Zac1b6Tz0N1zMyR-5" value="Guess Column" style="rounded=1;whiteSpace=wrap;html=1;" parent="WIyWlLk6GJQsqaUBKTNV-1" vertex="1">
          <mxGeometry x="325.5" y="740" width="120" height="40" as="geometry" />
        </mxCell>
        <mxCell id="R8ws0Zac1b6Tz0N1zMyR-11" value="" style="rounded=0;html=1;jettySize=auto;orthogonalLoop=1;fontSize=11;endArrow=none;endFill=0;endSize=8;strokeWidth=1;shadow=0;labelBackgroundColor=none;edgeStyle=orthogonalEdgeStyle;" parent="WIyWlLk6GJQsqaUBKTNV-1" source="WIyWlLk6GJQsqaUBKTNV-6" edge="1">
          <mxGeometry x="-0.2" y="40" relative="1" as="geometry">
            <mxPoint as="offset" />
            <mxPoint x="385.5" y="400" as="sourcePoint" />
            <mxPoint x="385.5" y="420" as="targetPoint" />
          </mxGeometry>
        </mxCell>
        <mxCell id="R8ws0Zac1b6Tz0N1zMyR-15" value="" style="edgeStyle=orthogonalEdgeStyle;rounded=0;orthogonalLoop=1;jettySize=auto;html=1;startArrow=none;" parent="WIyWlLk6GJQsqaUBKTNV-1" source="R8ws0Zac1b6Tz0N1zMyR-16" target="R8ws0Zac1b6Tz0N1zMyR-13" edge="1">
          <mxGeometry relative="1" as="geometry" />
        </mxCell>
        <mxCell id="R8ws0Zac1b6Tz0N1zMyR-20" value="" style="edgeStyle=orthogonalEdgeStyle;rounded=0;orthogonalLoop=1;jettySize=auto;html=1;" parent="WIyWlLk6GJQsqaUBKTNV-1" source="R8ws0Zac1b6Tz0N1zMyR-13" target="R8ws0Zac1b6Tz0N1zMyR-19" edge="1">
          <mxGeometry relative="1" as="geometry" />
        </mxCell>
        <mxCell id="R8ws0Zac1b6Tz0N1zMyR-13" value="Print result of user guess and computer guess" style="rounded=1;whiteSpace=wrap;html=1;" parent="WIyWlLk6GJQsqaUBKTNV-1" vertex="1">
          <mxGeometry x="300.5" y="1050" width="170" height="60" as="geometry" />
        </mxCell>
        <mxCell id="R8ws0Zac1b6Tz0N1zMyR-16" value="Retrieve guess data for user and computer" style="rounded=1;whiteSpace=wrap;html=1;" parent="WIyWlLk6GJQsqaUBKTNV-1" vertex="1">
          <mxGeometry x="305.5" y="930" width="160" height="60" as="geometry" />
        </mxCell>
        <mxCell id="R8ws0Zac1b6Tz0N1zMyR-18" value="" style="edgeStyle=orthogonalEdgeStyle;rounded=0;orthogonalLoop=1;jettySize=auto;html=1;endArrow=none;" parent="WIyWlLk6GJQsqaUBKTNV-1" target="R8ws0Zac1b6Tz0N1zMyR-16" edge="1">
          <mxGeometry relative="1" as="geometry">
            <mxPoint x="385.5" y="860" as="sourcePoint" />
            <mxPoint x="385.5" y="1020" as="targetPoint" />
          </mxGeometry>
        </mxCell>
        <mxCell id="R8ws0Zac1b6Tz0N1zMyR-22" value="" style="edgeStyle=orthogonalEdgeStyle;rounded=0;orthogonalLoop=1;jettySize=auto;html=1;startArrow=none;" parent="WIyWlLk6GJQsqaUBKTNV-1" target="R8ws0Zac1b6Tz0N1zMyR-21" edge="1">
          <mxGeometry relative="1" as="geometry">
            <mxPoint x="385.5" y="1190" as="sourcePoint" />
          </mxGeometry>
        </mxCell>
        <mxCell id="R8ws0Zac1b6Tz0N1zMyR-19" value="print scores" style="rounded=1;whiteSpace=wrap;html=1;" parent="WIyWlLk6GJQsqaUBKTNV-1" vertex="1">
          <mxGeometry x="325.5" y="1140" width="120" height="60" as="geometry" />
        </mxCell>
        <mxCell id="5fxGkOpCqhh_6MaEQhJv-33" value="" style="edgeStyle=orthogonalEdgeStyle;rounded=0;orthogonalLoop=1;jettySize=auto;html=1;" edge="1" parent="WIyWlLk6GJQsqaUBKTNV-1" source="R8ws0Zac1b6Tz0N1zMyR-21" target="5fxGkOpCqhh_6MaEQhJv-32">
          <mxGeometry relative="1" as="geometry" />
        </mxCell>
        <mxCell id="R8ws0Zac1b6Tz0N1zMyR-21" value="press any key to continue &lt;br&gt;or no to quit" style="rhombus;whiteSpace=wrap;html=1;" parent="WIyWlLk6GJQsqaUBKTNV-1" vertex="1">
          <mxGeometry x="303" y="1250" width="165" height="140" as="geometry" />
        </mxCell>
        <mxCell id="5fxGkOpCqhh_6MaEQhJv-28" value="" style="edgeStyle=orthogonalEdgeStyle;rounded=0;orthogonalLoop=1;jettySize=auto;html=1;" edge="1" parent="WIyWlLk6GJQsqaUBKTNV-1" source="R8ws0Zac1b6Tz0N1zMyR-40" target="5fxGkOpCqhh_6MaEQhJv-27">
          <mxGeometry relative="1" as="geometry" />
        </mxCell>
        <mxCell id="R8ws0Zac1b6Tz0N1zMyR-40" value="Guess Row" style="rounded=1;whiteSpace=wrap;html=1;fontSize=12;glass=0;strokeWidth=1;shadow=0;" parent="WIyWlLk6GJQsqaUBKTNV-1" vertex="1">
          <mxGeometry x="325.5" y="565" width="120" height="40" as="geometry" />
        </mxCell>
        <mxCell id="R8ws0Zac1b6Tz0N1zMyR-43" value="" style="edgeStyle=orthogonalEdgeStyle;rounded=0;orthogonalLoop=1;jettySize=auto;html=1;" parent="WIyWlLk6GJQsqaUBKTNV-1" edge="1">
          <mxGeometry relative="1" as="geometry">
            <mxPoint x="385.5" y="780" as="targetPoint" />
            <mxPoint x="385.5" y="780" as="sourcePoint" />
          </mxGeometry>
        </mxCell>
        <mxCell id="5fxGkOpCqhh_6MaEQhJv-8" value="" style="edgeStyle=orthogonalEdgeStyle;rounded=0;orthogonalLoop=1;jettySize=auto;html=1;" edge="1" parent="WIyWlLk6GJQsqaUBKTNV-1" target="R8ws0Zac1b6Tz0N1zMyR-49">
          <mxGeometry relative="1" as="geometry">
            <mxPoint x="385.5" y="780" as="sourcePoint" />
          </mxGeometry>
        </mxCell>
        <mxCell id="R8ws0Zac1b6Tz0N1zMyR-45" value="" style="edgeStyle=orthogonalEdgeStyle;rounded=0;orthogonalLoop=1;jettySize=auto;html=1;" parent="WIyWlLk6GJQsqaUBKTNV-1" source="R8ws0Zac1b6Tz0N1zMyR-46" edge="1">
          <mxGeometry relative="1" as="geometry">
            <mxPoint x="385.5" y="460" as="targetPoint" />
          </mxGeometry>
        </mxCell>
        <mxCell id="R8ws0Zac1b6Tz0N1zMyR-46" value="Show Board size and rules for board rows and column parameters" style="rounded=1;whiteSpace=wrap;html=1;" parent="WIyWlLk6GJQsqaUBKTNV-1" vertex="1">
          <mxGeometry x="325.5" y="380" width="120" height="60" as="geometry" />
        </mxCell>
        <mxCell id="5fxGkOpCqhh_6MaEQhJv-22" value="" style="edgeStyle=orthogonalEdgeStyle;rounded=0;orthogonalLoop=1;jettySize=auto;html=1;" edge="1" parent="WIyWlLk6GJQsqaUBKTNV-1" source="R8ws0Zac1b6Tz0N1zMyR-49" target="5fxGkOpCqhh_6MaEQhJv-21">
          <mxGeometry relative="1" as="geometry" />
        </mxCell>
        <mxCell id="R8ws0Zac1b6Tz0N1zMyR-49" value="Validate" style="rhombus;whiteSpace=wrap;html=1;" parent="WIyWlLk6GJQsqaUBKTNV-1" vertex="1">
          <mxGeometry x="335.5" y="820" width="100" height="80" as="geometry" />
        </mxCell>
        <mxCell id="5fxGkOpCqhh_6MaEQhJv-4" value="" style="edgeStyle=orthogonalEdgeStyle;rounded=0;orthogonalLoop=1;jettySize=auto;html=1;" edge="1" parent="WIyWlLk6GJQsqaUBKTNV-1" source="R8ws0Zac1b6Tz0N1zMyR-53" target="WIyWlLk6GJQsqaUBKTNV-6">
          <mxGeometry relative="1" as="geometry" />
        </mxCell>
        <mxCell id="5fxGkOpCqhh_6MaEQhJv-12" value="" style="edgeStyle=orthogonalEdgeStyle;rounded=0;orthogonalLoop=1;jettySize=auto;html=1;" edge="1" parent="WIyWlLk6GJQsqaUBKTNV-1" source="R8ws0Zac1b6Tz0N1zMyR-53">
          <mxGeometry relative="1" as="geometry">
            <mxPoint x="545.5" y="220" as="targetPoint" />
          </mxGeometry>
        </mxCell>
        <mxCell id="5fxGkOpCqhh_6MaEQhJv-19" value="" style="edgeStyle=orthogonalEdgeStyle;rounded=0;orthogonalLoop=1;jettySize=auto;html=1;" edge="1" parent="WIyWlLk6GJQsqaUBKTNV-1" source="R8ws0Zac1b6Tz0N1zMyR-53" target="5fxGkOpCqhh_6MaEQhJv-18">
          <mxGeometry relative="1" as="geometry" />
        </mxCell>
        <mxCell id="R8ws0Zac1b6Tz0N1zMyR-53" value="User input:&lt;br&gt;Enter player name&amp;nbsp;" style="rounded=0;whiteSpace=wrap;html=1;" parent="WIyWlLk6GJQsqaUBKTNV-1" vertex="1">
          <mxGeometry x="325.5" y="190" width="120" height="60" as="geometry" />
        </mxCell>
        <mxCell id="5fxGkOpCqhh_6MaEQhJv-0" value="BATTLESHIPS" style="rounded=1;whiteSpace=wrap;html=1;" vertex="1" parent="WIyWlLk6GJQsqaUBKTNV-1">
          <mxGeometry x="240" width="320" height="60" as="geometry" />
        </mxCell>
        <mxCell id="5fxGkOpCqhh_6MaEQhJv-9" value="" style="edgeStyle=orthogonalEdgeStyle;rounded=0;orthogonalLoop=1;jettySize=auto;html=1;" edge="1" parent="WIyWlLk6GJQsqaUBKTNV-1" source="5fxGkOpCqhh_6MaEQhJv-3" target="R8ws0Zac1b6Tz0N1zMyR-5">
          <mxGeometry relative="1" as="geometry" />
        </mxCell>
        <mxCell id="5fxGkOpCqhh_6MaEQhJv-30" value="" style="edgeStyle=orthogonalEdgeStyle;rounded=0;orthogonalLoop=1;jettySize=auto;html=1;" edge="1" parent="WIyWlLk6GJQsqaUBKTNV-1" source="5fxGkOpCqhh_6MaEQhJv-3" target="5fxGkOpCqhh_6MaEQhJv-29">
          <mxGeometry relative="1" as="geometry" />
        </mxCell>
        <mxCell id="5fxGkOpCqhh_6MaEQhJv-3" value="Validate" style="rhombus;whiteSpace=wrap;html=1;" vertex="1" parent="WIyWlLk6GJQsqaUBKTNV-1">
          <mxGeometry x="335.5" y="630" width="100" height="80" as="geometry" />
        </mxCell>
        <mxCell id="5fxGkOpCqhh_6MaEQhJv-13" value="" style="edgeStyle=orthogonalEdgeStyle;rounded=0;orthogonalLoop=1;jettySize=auto;html=1;" edge="1" parent="WIyWlLk6GJQsqaUBKTNV-1">
          <mxGeometry relative="1" as="geometry">
            <mxPoint x="470.5" y="220" as="sourcePoint" />
            <mxPoint x="450" y="140" as="targetPoint" />
            <Array as="points">
              <mxPoint x="550" y="220" />
              <mxPoint x="550" y="140" />
            </Array>
          </mxGeometry>
        </mxCell>
        <mxCell id="5fxGkOpCqhh_6MaEQhJv-14" value="No" style="text;html=1;align=center;verticalAlign=middle;resizable=0;points=[];autosize=1;strokeColor=none;fillColor=none;" vertex="1" parent="WIyWlLk6GJQsqaUBKTNV-1">
          <mxGeometry x="480" y="190" width="30" height="20" as="geometry" />
        </mxCell>
        <mxCell id="5fxGkOpCqhh_6MaEQhJv-15" value="Yes" style="text;html=1;align=center;verticalAlign=middle;resizable=0;points=[];autosize=1;strokeColor=none;fillColor=none;" vertex="1" parent="WIyWlLk6GJQsqaUBKTNV-1">
          <mxGeometry x="340" y="260" width="40" height="20" as="geometry" />
        </mxCell>
        <mxCell id="5fxGkOpCqhh_6MaEQhJv-17" value="" style="endArrow=classic;html=1;rounded=0;" edge="1" parent="WIyWlLk6GJQsqaUBKTNV-1">
          <mxGeometry width="50" height="50" relative="1" as="geometry">
            <mxPoint x="290" y="1320" as="sourcePoint" />
            <mxPoint x="200.5" y="225" as="targetPoint" />
            <Array as="points">
              <mxPoint x="201" y="1320" />
              <mxPoint x="200.5" y="245" />
            </Array>
          </mxGeometry>
        </mxCell>
        <mxCell id="5fxGkOpCqhh_6MaEQhJv-18" value="" style="shape=waypoint;size=6;pointerEvents=1;points=[];fillColor=rgba(255, 255, 255, 1);resizable=0;rotatable=0;perimeter=centerPerimeter;snapToPoint=1;rounded=0;" vertex="1" parent="WIyWlLk6GJQsqaUBKTNV-1">
          <mxGeometry x="165.5" y="200" width="40" height="40" as="geometry" />
        </mxCell>
        <mxCell id="5fxGkOpCqhh_6MaEQhJv-20" value="Yes" style="text;html=1;align=center;verticalAlign=middle;resizable=0;points=[];autosize=1;strokeColor=none;fillColor=none;" vertex="1" parent="WIyWlLk6GJQsqaUBKTNV-1">
          <mxGeometry x="140" y="1080" width="40" height="20" as="geometry" />
        </mxCell>
        <mxCell id="5fxGkOpCqhh_6MaEQhJv-21" value="" style="shape=waypoint;size=6;pointerEvents=1;points=[];fillColor=rgba(255, 255, 255, 1);resizable=0;rotatable=0;perimeter=centerPerimeter;snapToPoint=1;" vertex="1" parent="WIyWlLk6GJQsqaUBKTNV-1">
          <mxGeometry x="540" y="840" width="40" height="40" as="geometry" />
        </mxCell>
        <mxCell id="5fxGkOpCqhh_6MaEQhJv-25" value="" style="edgeStyle=orthogonalEdgeStyle;rounded=0;orthogonalLoop=1;jettySize=auto;html=1;" edge="1" parent="WIyWlLk6GJQsqaUBKTNV-1" source="5fxGkOpCqhh_6MaEQhJv-23" target="5fxGkOpCqhh_6MaEQhJv-21">
          <mxGeometry relative="1" as="geometry" />
        </mxCell>
        <mxCell id="5fxGkOpCqhh_6MaEQhJv-23" value="" style="shape=waypoint;size=6;pointerEvents=1;points=[];fillColor=rgba(255, 255, 255, 1);resizable=0;rotatable=0;perimeter=centerPerimeter;snapToPoint=1;rounded=1;" vertex="1" parent="WIyWlLk6GJQsqaUBKTNV-1">
          <mxGeometry x="540" y="740" width="40" height="40" as="geometry" />
        </mxCell>
        <mxCell id="5fxGkOpCqhh_6MaEQhJv-26" value="No" style="text;html=1;align=center;verticalAlign=middle;resizable=0;points=[];autosize=1;strokeColor=none;fillColor=none;" vertex="1" parent="WIyWlLk6GJQsqaUBKTNV-1">
          <mxGeometry x="470.5" y="830" width="30" height="20" as="geometry" />
        </mxCell>
        <mxCell id="5fxGkOpCqhh_6MaEQhJv-27" value="" style="shape=waypoint;size=6;pointerEvents=1;points=[];fillColor=rgba(255, 255, 255, 1);resizable=0;rotatable=0;perimeter=centerPerimeter;snapToPoint=1;rounded=1;shadow=0;strokeWidth=1;glass=0;" vertex="1" parent="WIyWlLk6GJQsqaUBKTNV-1">
          <mxGeometry x="540" y="565" width="40" height="40" as="geometry" />
        </mxCell>
        <mxCell id="5fxGkOpCqhh_6MaEQhJv-31" value="" style="edgeStyle=orthogonalEdgeStyle;rounded=0;orthogonalLoop=1;jettySize=auto;html=1;" edge="1" parent="WIyWlLk6GJQsqaUBKTNV-1" source="5fxGkOpCqhh_6MaEQhJv-29" target="5fxGkOpCqhh_6MaEQhJv-27">
          <mxGeometry relative="1" as="geometry" />
        </mxCell>
        <mxCell id="5fxGkOpCqhh_6MaEQhJv-29" value="" style="shape=waypoint;size=6;pointerEvents=1;points=[];fillColor=rgba(255, 255, 255, 1);resizable=0;rotatable=0;perimeter=centerPerimeter;snapToPoint=1;" vertex="1" parent="WIyWlLk6GJQsqaUBKTNV-1">
          <mxGeometry x="540" y="650" width="40" height="40" as="geometry" />
        </mxCell>
        <mxCell id="5fxGkOpCqhh_6MaEQhJv-35" value="" style="edgeStyle=orthogonalEdgeStyle;rounded=0;orthogonalLoop=1;jettySize=auto;html=1;" edge="1" parent="WIyWlLk6GJQsqaUBKTNV-1" source="5fxGkOpCqhh_6MaEQhJv-32" target="5fxGkOpCqhh_6MaEQhJv-34">
          <mxGeometry relative="1" as="geometry" />
        </mxCell>
        <mxCell id="5fxGkOpCqhh_6MaEQhJv-32" value="" style="shape=waypoint;size=6;pointerEvents=1;points=[];fillColor=rgba(255, 255, 255, 1);resizable=0;rotatable=0;perimeter=centerPerimeter;snapToPoint=1;" vertex="1" parent="WIyWlLk6GJQsqaUBKTNV-1">
          <mxGeometry x="720" y="1300" width="40" height="40" as="geometry" />
        </mxCell>
        <mxCell id="5fxGkOpCqhh_6MaEQhJv-37" value="" style="edgeStyle=orthogonalEdgeStyle;rounded=0;orthogonalLoop=1;jettySize=auto;html=1;" edge="1" parent="WIyWlLk6GJQsqaUBKTNV-1" source="5fxGkOpCqhh_6MaEQhJv-34" target="5fxGkOpCqhh_6MaEQhJv-36">
          <mxGeometry relative="1" as="geometry" />
        </mxCell>
        <mxCell id="5fxGkOpCqhh_6MaEQhJv-34" value="" style="shape=waypoint;size=6;pointerEvents=1;points=[];fillColor=rgba(255, 255, 255, 1);resizable=0;rotatable=0;perimeter=centerPerimeter;snapToPoint=1;" vertex="1" parent="WIyWlLk6GJQsqaUBKTNV-1">
          <mxGeometry x="720" y="220" width="40" height="40" as="geometry" />
        </mxCell>
        <mxCell id="5fxGkOpCqhh_6MaEQhJv-36" value="" style="shape=waypoint;size=6;pointerEvents=1;points=[];fillColor=rgba(255, 255, 255, 1);resizable=0;rotatable=0;perimeter=centerPerimeter;snapToPoint=1;" vertex="1" parent="WIyWlLk6GJQsqaUBKTNV-1">
          <mxGeometry x="430.5" y="220" width="40" height="40" as="geometry" />
        </mxCell>
        <mxCell id="5fxGkOpCqhh_6MaEQhJv-38" value="No" style="text;html=1;align=center;verticalAlign=middle;resizable=0;points=[];autosize=1;strokeColor=none;fillColor=none;" vertex="1" parent="WIyWlLk6GJQsqaUBKTNV-1">
          <mxGeometry x="580" y="1280" width="30" height="20" as="geometry" />
        </mxCell>
        <mxCell id="5fxGkOpCqhh_6MaEQhJv-39" value="No" style="text;html=1;align=center;verticalAlign=middle;resizable=0;points=[];autosize=1;strokeColor=none;fillColor=none;" vertex="1" parent="WIyWlLk6GJQsqaUBKTNV-1">
          <mxGeometry x="475" y="640" width="30" height="20" as="geometry" />
        </mxCell>
      </root>
    </mxGraphModel>
  </diagram>
</mxfile>
